<svg width="107" height="100" viewBox="0 0 107 100" fill="none" xmlns="http://www.w3.org/2000/svg">
<path d="M66.875 15.625H60.1875V6.25H46.8125V15.625H40.125V0H66.875V15.625Z" fill="#62808C"/>
<path d="M76.9062 100H30.0938C24.554 100 20.0625 95.8023 20.0625 90.625V25H86.9375V90.625C86.9375 95.8023 82.446 100 76.9062 100Z" fill="#E76E54"/>
<path d="M93.625 31.25H13.375V18.75C13.375 15.2985 16.3694 12.5 20.0625 12.5H86.9375C90.6306 12.5 93.625 15.2985 93.625 18.75V31.25Z" fill="#77959E"/>
<path d="M67.7109 50.7813C66.4056 49.5613 64.2888 49.5613 62.9827 50.7813L54.3359 58.8623L45.6892 50.7813C44.3831 49.5613 42.2663 49.5613 40.9609 50.7813C39.6556 52.0012 39.6556 53.9795 40.9609 55.2002L49.6077 63.2813L40.9609 71.3623C39.6556 72.583 39.6556 74.5614 40.9609 75.7813C42.2663 77.0012 44.3831 77.0012 45.6892 75.7813L54.3359 67.7002L62.9827 75.7813C64.2888 77.0012 66.4056 77.0012 67.7109 75.7813C69.0163 74.5614 69.0163 72.583 67.7109 71.3623L59.0642 63.2813L67.7109 55.2002C69.0163 53.9795 69.0163 52.0012 67.7109 50.7813Z" fill="white"/>
</svg>
