<svg width="169" height="63" viewBox="0 0 169 63" fill="none" xmlns="http://www.w3.org/2000/svg">
<ellipse cx="34" cy="31.5" rx="34" ry="31.5" fill="#353B48"/>
<path d="M24.1641 44.7031V30.7285C24.1641 27.3184 24.7266 24.582 25.8516 22.5195C27.8203 18.9102 30.5508 17.1055 34.043 17.1055C37.5469 17.1055 40.2773 18.9102 42.2344 22.5195C43.3594 24.5938 43.9219 27.3301 43.9219 30.7285C43.9219 34.0801 43.3594 36.8164 42.2344 38.9375C40.6523 41.9141 38.5898 43.8359 36.0469 44.7031H35.8711L34.5527 42.084C36.6387 41.0996 38.1914 39.5938 39.2109 37.5664C39.8672 36.2656 40.2539 34.4844 40.3711 32.2227H27.6797V43.1211L24.3398 44.7031H24.1641ZM27.7148 29.2344H40.3711C40.2539 26.9844 39.8672 25.2031 39.2109 23.8906C37.9453 21.3594 36.2227 20.0938 34.043 20.0938C31.875 20.0938 30.1523 21.3594 28.875 23.8906C28.2188 25.2031 27.832 26.9844 27.7148 29.2344Z" fill="#FF6348"/>
<path d="M77.1094 55.4688V46.1523C77.1094 43.8789 77.4844 42.0547 78.2344 40.6797C79.5469 38.2734 81.3672 37.0703 83.6953 37.0703C86.0312 37.0703 87.8516 38.2734 89.1562 40.6797C89.9062 42.0547 90.2812 43.8789 90.2812 46.1523C90.2812 48.3867 89.9062 50.2109 89.1562 51.625C88.1016 53.6094 86.7266 54.8906 85.0312 55.4688H84.9141L84.0352 53.7227C85.4258 53.0664 86.4609 52.0625 87.1406 50.7109C87.6719 49.6719 87.9375 48.1523 87.9375 46.1523C87.9375 44.168 87.6719 42.6484 87.1406 41.5938C86.2969 39.9062 85.1484 39.0625 83.6953 39.0625C82.2422 39.0625 81.0938 39.9062 80.25 41.5938C79.7188 42.6484 79.4531 44.168 79.4531 46.1523V54.4141L77.2266 55.4688H77.1094ZM96.1406 46.1523C96.1406 48.1602 96.4062 49.6797 96.9375 50.7109C97.8047 52.3984 98.9531 53.2422 100.383 53.2422C101.828 53.2422 102.977 52.3984 103.828 50.7109C104.359 49.6562 104.625 48.1367 104.625 46.1523C104.625 44.168 104.359 42.6484 103.828 41.5938C102.984 39.9062 101.836 39.0625 100.383 39.0625C98.9375 39.0625 97.7891 39.9062 96.9375 41.5938C96.4062 42.6484 96.1406 44.168 96.1406 46.1523ZM94.9219 51.625C94.1719 50.25 93.7969 48.4258 93.7969 46.1523C93.7969 43.8789 94.1719 42.0547 94.9219 40.6797C96.2344 38.2734 98.0547 37.0703 100.383 37.0703C102.719 37.0703 104.539 38.2734 105.844 40.6797C106.594 42.0625 106.969 43.8867 106.969 46.1523C106.969 48.4258 106.594 50.25 105.844 51.625C104.539 54.0312 102.719 55.2344 100.383 55.2344C98.0547 55.2344 96.2344 54.0312 94.9219 51.625ZM112.395 55.4688L112.406 39.2969H110.988C110.059 39.2969 109.48 39.7539 109.254 40.668H109.137L107.379 39.8359C107.84 38.1484 109.043 37.3047 110.988 37.3047H119.754V37.4219L118.875 39.2969H114.75L114.738 54.4141L112.512 55.4688H112.395ZM120.164 55.4688V46.1523C120.164 43.8789 120.539 42.0547 121.289 40.6797C122.602 38.2734 124.422 37.0703 126.75 37.0703C129.086 37.0703 130.906 38.2734 132.211 40.6797C132.961 42.0625 133.336 43.8867 133.336 46.1523C133.336 48.3867 132.961 50.2109 132.211 51.625C131.156 53.6094 129.781 54.8906 128.086 55.4688H127.969L127.09 53.7227C128.48 53.0664 129.516 52.0625 130.195 50.7109C130.633 49.8438 130.891 48.6562 130.969 47.1484H122.508V54.4141L120.281 55.4688H120.164ZM122.531 45.1562H130.969C130.891 43.6562 130.633 42.4688 130.195 41.5938C129.352 39.9062 128.203 39.0625 126.75 39.0625C125.305 39.0625 124.156 39.9062 123.305 41.5938C122.867 42.4688 122.609 43.6562 122.531 45.1562ZM146.578 55.4688V46.1523C146.578 43.8789 146.953 42.0547 147.703 40.6797C149.016 38.2734 150.836 37.0703 153.164 37.0703C155.5 37.0703 157.32 38.2734 158.625 40.6797C159.375 42.0625 159.75 43.8867 159.75 46.1523C159.75 48.3867 159.375 50.2109 158.625 51.625C157.57 53.6094 156.195 54.8906 154.5 55.4688H154.383L153.504 53.7227C154.895 53.0664 155.93 52.0625 156.609 50.7109C157.047 49.8438 157.305 48.6562 157.383 47.1484H148.922V54.4141L146.695 55.4688H146.578ZM148.945 45.1562H157.383C157.305 43.6562 157.047 42.4688 156.609 41.5938C155.766 39.9062 154.617 39.0625 153.164 39.0625C151.719 39.0625 150.57 39.9062 149.719 41.5938C149.281 42.4688 149.023 43.6562 148.945 45.1562ZM165.586 31.9609H165.703L167.766 32.9453L165.176 36.6484H165.059L163.688 36.0039L165.586 31.9609ZM163.852 55.4688V37.8906L166.078 36.8359H166.195V54.4141L163.969 55.4688H163.852Z" fill="#353B48"/>
</svg>
