<svg width="84" height="86" viewBox="0 0 84 86" fill="none" xmlns="http://www.w3.org/2000/svg">
<g clip-path="url(#clip0)">
<path d="M49.875 10.75H9.625C4.305 10.75 0 15.1575 0 20.6042V65.3958C0 70.8425 4.305 75.25 9.625 75.25H35.455L36.225 70.8425C36.5785 68.8358 37.485 67.0442 38.8885 65.575L43.4385 60.9167H13.125C11.69 60.9167 10.5 59.6983 10.5 58.2292C10.5 56.76 11.69 55.5417 13.125 55.5417H46.375C47.005 55.5417 47.6 55.7925 48.055 56.1867L59.5 44.505V20.6042C59.5 15.1575 55.195 10.75 49.875 10.75ZM46.375 49.2708H13.125C11.69 49.2708 10.5 48.0525 10.5 46.5833C10.5 45.1142 11.69 43.8958 13.125 43.8958H46.375C47.81 43.8958 49 45.1142 49 46.5833C49 48.0525 47.81 49.2708 46.375 49.2708ZM46.375 37.625H13.125C11.69 37.625 10.5 36.4067 10.5 34.9375C10.5 33.4683 11.69 32.25 13.125 32.25H46.375C47.81 32.25 49 33.4683 49 34.9375C49 36.4067 47.81 37.625 46.375 37.625Z" fill="#2196F3"/>
<path d="M42.8751 7.16667H39.0251C37.8701 3.04583 34.1601 0 29.7501 0C25.3401 0 21.6301 3.04583 20.4751 7.16667H16.6251C15.1901 7.16667 14.0001 8.385 14.0001 9.85417V17.0208C14.0001 20.4608 16.7651 23.2917 20.1251 23.2917H39.3751C42.7351 23.2917 45.5001 20.4608 45.5001 17.0208V9.85417C45.5001 8.385 44.3101 7.16667 42.8751 7.16667Z" fill="#1976D2"/>
<path d="M49 34.9375C49 36.4067 47.81 37.625 46.375 37.625H13.125C11.69 37.625 10.5 36.4067 10.5 34.9375C10.5 33.4683 11.69 32.25 13.125 32.25H46.375C47.81 32.25 49 33.4683 49 34.9375Z" fill="white"/>
<path d="M49 46.5834C49 48.0525 47.81 49.2709 46.375 49.2709H13.125C11.69 49.2709 10.5 48.0525 10.5 46.5834C10.5 45.1142 11.69 43.8959 13.125 43.8959H46.375C47.81 43.8959 49 45.1142 49 46.5834Z" fill="white"/>
<path d="M48.055 56.1866L43.435 60.9166H13.125C11.69 60.9166 10.5 59.6983 10.5 58.2291C10.5 56.76 11.69 55.5416 13.125 55.5416H46.375C47.005 55.5416 47.6 55.7925 48.055 56.1866Z" fill="white"/>
<path d="M14 10.75H9.625C4.305 10.75 0 15.1575 0 20.6042V65.3958C0 70.8425 4.305 75.25 9.625 75.25H29.75V60.9167H13.125C11.69 60.9167 10.5 59.6983 10.5 58.2292C10.5 56.76 11.69 55.5417 13.125 55.5417H29.75V49.2708H13.125C11.69 49.2708 10.5 48.0525 10.5 46.5833C10.5 45.1142 11.69 43.8958 13.125 43.8958H29.75V37.625H13.125C11.69 37.625 10.5 36.4067 10.5 34.9375C10.5 33.4683 11.69 32.25 13.125 32.25H29.75V23.2917H20.125C16.765 23.2917 14 20.4608 14 17.0208V10.75Z" fill="#1D83D4"/>
<path d="M29.7501 0C25.3401 0 21.6301 3.04583 20.4751 7.16667H16.6251C15.1901 7.16667 14.0001 8.385 14.0001 9.85417V10.75V17.0208C14.0001 20.4608 16.7651 23.2917 20.1251 23.2917H29.7501V0Z" fill="#1667B7"/>
<path d="M29.75 32.25H13.125C11.69 32.25 10.5 33.4683 10.5 34.9375C10.5 36.4067 11.69 37.625 13.125 37.625H29.75V32.25Z" fill="#DEDEDE"/>
<path d="M29.75 43.8959H13.125C11.69 43.8959 10.5 45.1142 10.5 46.5834C10.5 48.0525 11.69 49.2709 13.125 49.2709H29.75V43.8959Z" fill="#DEDEDE"/>
<path d="M29.75 55.5416H13.125C11.69 55.5416 10.5 56.76 10.5 58.2291C10.5 59.6983 11.69 60.9166 13.125 60.9166H29.75V55.5416Z" fill="#DEDEDE"/>
<path d="M43.8445 86C43.155 86 42.483 85.7205 41.9895 85.2117C41.384 84.5918 41.111 83.7103 41.2615 82.8431L43.1165 72.0752C43.2075 71.5341 43.4665 71.0324 43.8445 70.6454L69.832 44.0392C73.024 40.7676 76.16 41.6491 77.875 43.4049L82.2045 47.8375C84.595 50.2849 84.595 54.2588 82.2045 56.7063L56.217 83.3125C55.839 83.7031 55.349 83.9647 54.817 84.0615L44.2995 85.957L43.8445 86ZM54.362 81.4134H54.397H54.362Z" fill="#FFC107"/>
<path d="M74.305 41.8354C72.933 41.8354 71.3895 42.4446 69.832 44.0392L43.8445 70.6455C43.4665 71.0325 43.2075 71.5341 43.1165 72.0752L41.2615 82.8431C41.111 83.7103 41.384 84.5918 41.9895 85.2117C42.0175 85.2404 42.042 85.2655 42.07 85.2905L80.4265 46.0172L77.8715 43.4014C76.9965 42.5055 75.7435 41.8354 74.305 41.8354Z" fill="#DEA806"/>
</g>
<defs>
<clipPath id="clip0">
<rect width="84" height="86" fill="white"/>
</clipPath>
</defs>
</svg>
